HIERARCHY
ROOT hips
{
  OFFSET 0 10.680822821525009 1.3929502295107734
  CHANNELS 6 Xposition Yposition Zposition Yrotation Xrotation Zrotation
  JOINT spine
  {
    OFFSET -7.042017322922631e-31 0.6058489940359625 0
    CHANNELS 3 Yrotation Xrotation Zrotation
    JOINT chest
    {
      OFFSET 0 1.2699794144455032 0
      CHANNELS 3 Yrotation Xrotation Zrotation
      JOINT upperChest
      {
        OFFSET 0 1.217799211677689 0
        CHANNELS 3 Yrotation Xrotation Zrotation
        JOINT neck
        {
          OFFSET 0 1.5248826104153006 0
          CHANNELS 3 Yrotation Xrotation Zrotation
          JOINT head
          {
            OFFSET 0 0.8197772727844447 0
            CHANNELS 3 Yrotation Xrotation Zrotation
            JOINT leftEye
            {
              OFFSET 0.2793952361220866 0.6769952096623495 0.1830357412467788
              CHANNELS 3 Yrotation Xrotation Zrotation
              End Site
              {
                OFFSET 0.2793952361220866 0.6769952096623495 0.1830357412467788
              }
            }
            JOINT rightEye
            {
              OFFSET -0.27939522230689573 0.676995205357064 0.18303631459760622
              CHANNELS 3 Yrotation Xrotation Zrotation
              End Site
              {
                OFFSET -0.27939522230689573 0.676995205357064 0.18303631459760622
              }
            }
          }
        }
        JOINT leftShoulder
        {
          OFFSET 0.41486978509200423 1.1670505408695453 0
          CHANNELS 3 Yrotation Xrotation Zrotation
          JOINT leftUpperArm
          {
            OFFSET 0.9737926108153417 0 0
            CHANNELS 3 Yrotation Xrotation Zrotation
            JOINT leftLowerArm
            {
              OFFSET 2.5269332222665284 0 0
              CHANNELS 3 Yrotation Xrotation Zrotation
              JOINT leftHand
              {
                OFFSET 2.4263782738425914 0 0
                CHANNELS 3 Yrotation Xrotation Zrotation
                JOINT leftIndexProximal
                {
                  OFFSET 0.724320348022514 0.08170607082582437 0.20360061616140124
                  CHANNELS 3 Yrotation Xrotation Zrotation
                  JOINT leftIndexIntermediate
                  {
                    OFFSET 0.36548960630744587 -0.010566596513783999 -0.01414783573280308
                    CHANNELS 3 Yrotation Xrotation Zrotation
                    JOINT leftIndexDistal
                    {
                      OFFSET 0.22502819650693362 -0.007863819831430696 -0.007567681939621526
                      CHANNELS 3 Yrotation Xrotation Zrotation
                      End Site
                      {
                        OFFSET 0.22502819650693362 -0.007863819831430696 -0.007567681939621526
                      }
                    }
                  }
                }
                JOINT leftLittleProximal
                {
                  OFFSET 0.6720322998298205 0.08170601055037707 -0.3230036039466837
                  CHANNELS 3 Yrotation Xrotation Zrotation
                  JOINT leftLittleIntermediate
                  {
                    OFFSET 0.34583592281688713 5.476543019078406e-8 1.3869203337180114e-7
                    CHANNELS 3 Yrotation Xrotation Zrotation
                    JOINT leftLittleDistal
                    {
                      OFFSET 0.19925728062053938 0.003098047439490381 0.0038303983709246925
                      CHANNELS 3 Yrotation Xrotation Zrotation
                      End Site
                      {
                        OFFSET 0.19925728062053938 0.003098047439490381 0.0038303983709246925
                      }
                    }
                  }
                }
                JOINT leftMiddleProximal
                {
                  OFFSET 0.7300436596551069 0.0817073395107144 0.022661722987926763
                  CHANNELS 3 Yrotation Xrotation Zrotation
                  JOINT leftMiddleIntermediate
                  {
                    OFFSET 0.40758254347686607 -0.0000012383587111308714 2.408460318820138e-7
                    CHANNELS 3 Yrotation Xrotation Zrotation
                    JOINT leftMiddleDistal
                    {
                      OFFSET 0.2514490105498507 0.0000013869132886590307 9.738618134136345e-8
                      CHANNELS 3 Yrotation Xrotation Zrotation
                      End Site
                      {
                        OFFSET 0.2514490105498507 0.0000013869132886590307 9.738618134136345e-8
                      }
                    }
                  }
                }
                JOINT leftRingProximal
                {
                  OFFSET 0.7217261161191838 0.08170601902187746 -0.15043395722184966
                  CHANNELS 3 Yrotation Xrotation Zrotation
                  JOINT leftRingIntermediate
                  {
                    OFFSET 0.37808807487521556 0.0000013754022405443322 2.2046919317952884e-7
                    CHANNELS 3 Yrotation Xrotation Zrotation
                    JOINT leftRingDistal
                    {
                      OFFSET 0.21812105442344254 -0.002713483731960231 -0.004991354517454624
                      CHANNELS 3 Yrotation Xrotation Zrotation
                      End Site
                      {
                        OFFSET 0.21812105442344254 -0.002713483731960231 -0.004991354517454624
                      }
                    }
                  }
                }
                JOINT leftThumbProximal
                {
                  OFFSET 0.10793587079521427 -0.1652791240518252 -0.07775251827190094
                  CHANNELS 3 Yrotation Xrotation Zrotation
                  JOINT leftThumbIntermediate
                  {
                    OFFSET 0.40355819082296684 -0.017484006740276614 0.3177776014416309
                    CHANNELS 3 Yrotation Xrotation Zrotation
                    JOINT leftThumbDistal
                    {
                      OFFSET 0.2318764658022603 -0.018510186824293617 0.21396001800186287
                      CHANNELS 3 Yrotation Xrotation Zrotation
                      End Site
                      {
                        OFFSET 0.2318764658022603 -0.018510186824293617 0.21396001800186287
                      }
                    }
                  }
                }
              }
            }
          }
        }
        JOINT rightShoulder
        {
          OFFSET -0.4148697850920044 1.1670505408695453 0
          CHANNELS 3 Yrotation Xrotation Zrotation
          JOINT rightUpperArm
          {
            OFFSET -0.9737926108153414 0 0
            CHANNELS 3 Yrotation Xrotation Zrotation
            JOINT rightLowerArm
            {
              OFFSET -2.5269332222665293 0 0
              CHANNELS 3 Yrotation Xrotation Zrotation
              JOINT rightHand
              {
                OFFSET -2.42637827384259 0 0
                CHANNELS 3 Yrotation Xrotation Zrotation
                JOINT rightIndexProximal
                {
                  OFFSET -0.724320348022514 0.08170607082582437 0.20360061616140124
                  CHANNELS 3 Yrotation Xrotation Zrotation
                  JOINT rightIndexIntermediate
                  {
                    OFFSET -0.36548960630744587 -0.010566596513783999 -0.01414783573280308
                    CHANNELS 3 Yrotation Xrotation Zrotation
                    JOINT rightIndexDistal
                    {
                      OFFSET -0.22502819650693362 -0.007863819831430696 -0.007567681939621526
                      CHANNELS 3 Yrotation Xrotation Zrotation
                      End Site
                      {
                        OFFSET -0.22502819650693362 -0.007863819831430696 -0.007567681939621526
                      }
                    }
                  }
                }
                JOINT rightLittleProximal
                {
                  OFFSET -0.6720322998298205 0.08170601055037707 -0.3230036039466837
                  CHANNELS 3 Yrotation Xrotation Zrotation
                  JOINT rightLittleIntermediate
                  {
                    OFFSET -0.34583592281688713 5.476543019078406e-8 1.3869203337180114e-7
                    CHANNELS 3 Yrotation Xrotation Zrotation
                    JOINT rightLittleDistal
                    {
                      OFFSET -0.19925728062053938 0.003098047439490381 0.0038303983709246925
                      CHANNELS 3 Yrotation Xrotation Zrotation
                      End Site
                      {
                        OFFSET -0.19925728062053938 0.003098047439490381 0.0038303983709246925
                      }
                    }
                  }
                }
                JOINT rightMiddleProximal
                {
                  OFFSET -0.7300436596551069 0.0817073395107144 0.022661722987926763
                  CHANNELS 3 Yrotation Xrotation Zrotation
                  JOINT rightMiddleIntermediate
                  {
                    OFFSET -0.40758254347686607 -0.0000012383587111308714 2.408460318820138e-7
                    CHANNELS 3 Yrotation Xrotation Zrotation
                    JOINT rightMiddleDistal
                    {
                      OFFSET -0.2514490105498507 0.0000013869132886590307 9.738618134136345e-8
                      CHANNELS 3 Yrotation Xrotation Zrotation
                      End Site
                      {
                        OFFSET -0.2514490105498507 0.0000013869132886590307 9.738618134136345e-8
                      }
                    }
                  }
                }
                JOINT rightRingProximal
                {
                  OFFSET -0.7217261161191838 0.08170601902187746 -0.15043395722184966
                  CHANNELS 3 Yrotation Xrotation Zrotation
                  JOINT rightRingIntermediate
                  {
                    OFFSET -0.37808807487521556 0.0000013754022405443322 2.2046919317952884e-7
                    CHANNELS 3 Yrotation Xrotation Zrotation
                    JOINT rightRingDistal
                    {
                      OFFSET -0.21812105442344254 -0.002713483731960231 -0.004991354517454624
                      CHANNELS 3 Yrotation Xrotation Zrotation
                      End Site
                      {
                        OFFSET -0.21812105442344254 -0.002713483731960231 -0.004991354517454624
                      }
                    }
                  }
                }
                JOINT rightThumbProximal
                {
                  OFFSET -0.10793587079521427 -0.1652791240518252 -0.07775251827190094
                  CHANNELS 3 Yrotation Xrotation Zrotation
                  JOINT rightThumbIntermediate
                  {
                    OFFSET -0.40355819082296684 -0.017484006740276614 0.3177776014416309
                    CHANNELS 3 Yrotation Xrotation Zrotation
                    JOINT rightThumbDistal
                    {
                      OFFSET -0.2318764658022603 -0.018510186824293617 0.21396001800186287
                      CHANNELS 3 Yrotation Xrotation Zrotation
                      End Site
                      {
                        OFFSET -0.2318764658022603 -0.018510186824293617 0.21396001800186287
                      }
                    }
                  }
                }
              }
            }
          }
        }
      }
    }
  }
  JOINT leftUpperLeg
  {
    OFFSET 0.8486251390888677 -0.4421577294694363 0
    CHANNELS 3 Yrotation Xrotation Zrotation
    JOINT leftLowerLeg
    {
      OFFSET 0 -4.10147812638609 0
      CHANNELS 3 Yrotation Xrotation Zrotation
      JOINT leftFoot
      {
        OFFSET -0.0002543926476658853 -4.77292286812444 0.007402811231737388
        CHANNELS 3 Yrotation Xrotation Zrotation
        JOINT leftToes
        {
          OFFSET 0 -0.7027875951174846 1.2062924140498823
          CHANNELS 3 Yrotation Xrotation Zrotation
          End Site
          {
            OFFSET 0 -0.7027875951174846 1.2062924140498823
          }
        }
      }
    }
  }
  JOINT rightUpperLeg
  {
    OFFSET -0.8486251390888677 -0.4421577294694363 0
    CHANNELS 3 Yrotation Xrotation Zrotation
    JOINT rightLowerLeg
    {
      OFFSET 0 -4.10147812638609 0
      CHANNELS 3 Yrotation Xrotation Zrotation
      JOINT rightFoot
      {
        OFFSET 0.0002543926476658853 -4.77292286812444 0.007402811231737388
        CHANNELS 3 Yrotation Xrotation Zrotation
        JOINT rightToes
        {
          OFFSET 0 -0.7027875951174846 1.2062924140498823
          CHANNELS 3 Yrotation Xrotation Zrotation
          End Site
          {
            OFFSET 0 -0.7027875951174846 1.2062924140498823
          }
        }
      }
    }
  }
}
MOTION
Frames: 4
Frame Time: 0.03333333333333333
1.351629614830017 -1.767211409476669 -0.22892147302627563 -3.410594237667361 2.220615821322156 0.41649568573313156 -4.602508679381528 13.659883857393329 3.42361422209838 -2.2625701863510206 18.563173824704865 6.326309297480052 0 0 0 2.4363953418556616 -1.0171733976928885 -1.4404423652274265 16.581207193402648 -29.723863205623257 -13.771716847332595 0 0 0 0 0 0 -1.7647424152432367 0.7867640664205425 -2.6238262878234653 -58.551129035331634 -3.651208583837544 -23.86109113428141 -114.99804351229936 -6.308098382140943 12.180066722862055 17.81495450410106 37.40096013467491 11.77332852532194 6.1265681066443305 6.959427512801189 -97.30042667317996 6.111957950729785 7.0653746429467486 -98.29648336657709 4.66929504798394 2.136800243399879 -49.16261212602536 5.617784312080074 10.988758719689208 -96.92184488111172 1.9946585166334199 7.097736633727576 -98.75658822614115 4.669287384194047 2.1367914861306794 -49.16260730574081 6.126787305947453 6.957705574199391 -97.2843893420786 6.111721476581629 7.067104722403314 -98.3125328011298 4.669292493387327 2.136794476417718 -49.162599899905736 6.126567251446038 6.959427082745805 -97.30042667317996 6.111957950729785 7.0653746429467486 -98.29648336657709 4.669295473750041 2.136800456991811 -49.16261212602536 10.157644091755238 33.85992105248742 5.27378742749987 61.116912098846846 31.600710805023212 4.056371027726206 27.164952301572516 12.469397169790689 -2.411528547634753 -8.850980903094888 0.07571475672958364 7.435097283169896 33.1273330116503 3.259541523819043 26.859430208532228 124.46362393937824 -5.543983859908256 -13.280614410466473 -13.288312165794904 17.36324890406481 -39.76884749825873 -6.101750090912027 7.567265925079894 102.26755457714553 -6.101766728615297 7.567269370178064 102.26753280493537 -4.858842765926351 2.3258212157891456 51.13807040302562 -6.101752231899912 7.5672676476289755 102.26755457714553 -6.101769297800753 7.567271954001709 102.26753280493537 -4.858847022960866 2.3258212157891456 51.13806559708134 -6.101750519109605 7.5672650638053565 102.26755457714553 -6.101766728615297 7.567269370178064 102.26753280493537 -4.858842765926351 2.3258212157891456 51.13807040302562 -6.101750947307183 7.567265925079894 102.26755457714553 -6.101767156812874 7.567269370178064 102.26753280493537 -4.858842765926351 2.3258212157891456 51.13807040302562 12.505732753306608 41.0420780782166 9.978902220393788 -28.819428455058528 59.839787743033234 -8.874111970899056 -10.263368635207737 27.73197116061607 1.5695168742452634 -1.5601472729216208 -40.3852361740079 10.719379616659227 4.37776439171246 65.522567754091 8.590822889505574 3.5063850563458896 -23.46134255476824 -14.414925276644492 -0.000003069274314438404 -7.110608761454107 0.000001364789147358617 4.45136605097169 -39.37381973141847 -16.857367588770213 12.298905769711034 59.80448091938349 0.9653107860945485 -0.9303225105148741 -21.164066669191985 16.079772507578923 0.0000024385859647087478 -7.0900432981636685 9.161105749626877e-7
1.246485710144043 -1.520462485221298 -0.20255526900291443 -0.1370980797208722 2.857926732219076 1.8292051636994135 -5.754037394633561 11.596504252031965 3.936382145678084 -2.8946437629015196 17.066085749534306 7.158185598140639 0 0 0 2.58644498716191 -0.8883374436742458 -1.8849802958803237 17.176542125703257 -26.56378320138441 -15.092780420529076 0 0 0 0 0 0 -2.964604269740946 0.8601924535395099 -0.6837533751646242 -60.31797626972805 -9.622533067631094 -22.54371130557099 -110.12948433691368 -6.627364461950058 11.569297696696943 16.453434622142073 36.65498189317905 11.52298010652364 6.1265681066443305 6.959427512801189 -97.30042667317996 6.111957950729785 7.0653746429467486 -98.29648336657709 4.66929504798394 2.136800243399879 -49.16261212602536 5.617784312080074 10.988758719689208 -96.92184488111172 1.9946585166334199 7.097736633727576 -98.75658822614115 4.669287384194047 2.1367914861306794 -49.16260730574081 6.126787305947453 6.957705574199391 -97.2843893420786 6.111721476581629 7.067104722403314 -98.3125328011298 4.669292493387327 2.136794476417718 -49.162599899905736 6.126567251446038 6.959427082745805 -97.30042667317996 6.111957950729785 7.0653746429467486 -98.29648336657709 4.669295473750041 2.136800456991811 -49.16261212602536 10.157644091755238 33.85992105248742 5.27378742749987 61.116912098846846 31.600710805023212 4.056371027726206 27.164952301572516 12.469397169790689 -2.411528547634753 -8.22550085458249 0.08209167818480137 6.685536599945835 31.363439004431143 -2.427911961268231 23.76963466007081 122.44808926505931 -5.721899923875359 -13.057001328497517 -13.067727458888465 17.712348839684804 -36.97989606421826 -6.101750090912027 7.567265925079894 102.26755457714553 -6.101766728615297 7.567269370178064 102.26753280493537 -4.858842765926351 2.3258212157891456 51.13807040302562 -6.101752231899912 7.5672676476289755 102.26755457714553 -6.101769297800753 7.567271954001709 102.26753280493537 -4.858847022960866 2.3258212157891456 51.13806559708134 -6.101750519109605 7.5672650638053565 102.26755457714553 -6.101766728615297 7.567269370178064 102.26753280493537 -4.858842765926351 2.3258212157891456 51.13807040302562 -6.101750947307183 7.567265925079894 102.26755457714553 -6.101767156812874 7.567269370178064 102.26753280493537 -4.858842765926351 2.3258212157891456 51.13807040302562 12.505732753306608 41.0420780782166 9.978902220393788 -28.819428455058528 59.839787743033234 -8.874111970899056 -10.263368635207737 27.73197116061607 1.5695168742452634 -0.20705445394847222 -38.11726050956568 8.734210253704962 -2.0882835472082366 58.83051065422408 2.5962299809721223 2.9137533184458273 -21.237559517896454 -12.861996479900347 0.000003892114203921614 -6.009353245331134 0.000005816856108636161 1.7997307637710886 -36.64433606603349 -17.302527549003873 11.86101921218357 55.057552608443764 0.9207824331472482 -2.2258649851241596 -20.391621628002923 15.377235240685453 3.0976790731407694e-7 -6.148530885165931 -0.000007485863673001354
1.1879265308380127 -1.386138411429794 -0.18363334238529205 1.5849721927161122 3.119093556089831 2.4434579423316354 -6.275597939754624 10.431402050401013 4.218954399211816 -3.1840278362037315 16.28540694903449 7.486601305123885 0 0 0 2.614182279581179 -0.7513277200070198 -2.0783678988272656 17.06088887309989 -24.826481232026246 -15.31861493112634 0 0 0 0 0 0 -3.52158402219026 0.8810463080744295 0.28525543152986 -61.25407219480188 -12.833204083803391 -21.97880497595124 -106.81557407486949 -6.814529659648042 11.139181786136156 15.352549907237481 35.96245997808203 11.255321364116027 6.1265681066443305 6.959427512801189 -97.30042667317996 6.111957950729785 7.0653746429467486 -98.29648336657709 4.66929504798394 2.136800243399879 -49.16261212602536 5.617784312080074 10.988758719689208 -96.92184488111172 1.9946585166334199 7.097736633727576 -98.75658822614115 4.669287384194047 2.1367914861306794 -49.16260730574081 6.126787305947453 6.957705574199391 -97.2843893420786 6.111721476581629 7.067104722403314 -98.3125328011298 4.669292493387327 2.136794476417718 -49.162599899905736 6.126567251446038 6.959427082745805 -97.30042667317996 6.111957950729785 7.0653746429467486 -98.29648336657709 4.669295473750041 2.136800456991811 -49.16261212602536 10.157644091755238 33.85992105248742 5.27378742749987 61.116912098846846 31.600710805023212 4.056371027726206 27.164952301572516 12.469397169790689 -2.411528547634753 -7.838875123836786 0.08483153410424805 6.199986854531865 30.629139350977695 -5.610601586075012 22.79426079078571 120.85458556958721 -5.8568660377967525 -12.875910500542838 -13.077860074643743 18.249308406292663 -34.77788387506282 -6.101750090912027 7.567265925079894 102.26755457714553 -6.101766728615297 7.567269370178064 102.26753280493537 -4.858842765926351 2.3258212157891456 51.13807040302562 -6.101752231899912 7.5672676476289755 102.26755457714553 -6.101769297800753 7.567271954001709 102.26753280493537 -4.858847022960866 2.3258212157891456 51.13806559708134 -6.101750519109605 7.5672650638053565 102.26755457714553 -6.101766728615297 7.567269370178064 102.26753280493537 -4.858842765926351 2.3258212157891456 51.13807040302562 -6.101750947307183 7.567265925079894 102.26755457714553 -6.101767156812874 7.567269370178064 102.26753280493537 -4.858842765926351 2.3258212157891456 51.13807040302562 12.505732753306608 41.0420780782166 9.978902220393788 -28.819428455058528 59.839787743033234 -8.874111970899056 -10.263368635207737 27.73197116061607 1.5695168742452634 0.5879150592065115 -36.638581717377946 7.924725977108815 -5.032427183425706 54.80771766748429 0.07385203044883563 2.619920590173116 -19.934317681158326 -12.071430077203084 0.000001988275848000203 -5.356665903235192 9.227568488253362e-8 0.25131541940406993 -35.00439111774299 -17.33665014624776 11.284279843614684 52.244027403692954 0.6733149297453519 -2.773157790292865 -19.926264069938647 14.866198607101055 -0.000003140709322157615 -5.581089423767565 0.000003308243753623265
1.0557477474212646 -1.128509016898544 -0.13751545548439026 5.008069689255857 3.400510936468836 3.4903041396624523 -7.078229346376982 8.072300874746592 4.76465298965547 -3.6316200948753576 14.778734372456302 7.886309967890333 0 0 0 2.5462453118872492 -0.3202269488627456 -2.3364617658925475 16.051926440788343 -21.267086378428857 -15.042113766572582 0 0 0 0 0 0 -4.66788504183405 0.9088366154284965 2.1792213042345603 -63.33344281637983 -19.48422203235536 -20.48409547486417 -98.0095843709108 -7.188417942376035 9.951570236772803 12.145105716830097 33.73978245897016 10.392197863881501 6.1265681066443305 6.959427512801189 -97.30042667317996 6.111957950729785 7.0653746429467486 -98.29648336657709 4.66929504798394 2.136800243399879 -49.16261212602536 5.617784312080074 10.988758719689208 -96.92184488111172 1.9946585166334199 7.097736633727576 -98.75658822614115 4.669287384194047 2.1367914861306794 -49.16260730574081 6.126787305947453 6.957705574199391 -97.2843893420786 6.111721476581629 7.067104722403314 -98.3125328011298 4.669292493387327 2.136794476417718 -49.162599899905736 6.126567251446038 6.959427082745805 -97.30042667317996 6.111957950729785 7.0653746429467486 -98.29648336657709 4.669295473750041 2.136800456991811 -49.16261212602536 10.157644091755238 33.85992105248742 5.27378742749987 61.116912098846846 31.600710805023212 4.056371027726206 27.164952301572516 12.469397169790689 -2.411528547634753 -6.927435362208153 0.0942097221273195 4.986587501534746 29.757418553084374 -12.49118112495054 21.743372551178425 116.18117811314707 -6.2227748604368065 -12.324250492280632 -13.182877530464284 20.11879707717385 -29.06178602376938 -6.101750090912027 7.567265925079894 102.26755457714553 -6.101766728615297 7.567269370178064 102.26753280493537 -4.858842765926351 2.3258212157891456 51.13807040302562 -6.101752231899912 7.5672676476289755 102.26755457714553 -6.101769297800753 7.567271954001709 102.26753280493537 -4.858847022960866 2.3258212157891456 51.13806559708134 -6.101750519109605 7.5672650638053565 102.26755457714553 -6.101766728615297 7.567269370178064 102.26753280493537 -4.858842765926351 2.3258212157891456 51.13807040302562 -6.101750947307183 7.567265925079894 102.26755457714553 -6.101767156812874 7.567269370178064 102.26753280493537 -4.858842765926351 2.3258212157891456 51.13807040302562 12.505732753306608 41.0420780782166 9.978902220393788 -28.819428455058528 59.839787743033234 -8.874111970899056 -10.263368635207737 27.73197116061607 1.5695168742452634 2.355937961822646 -33.32533511331468 6.7656556179643035 -10.135174758640849 46.258908830360994 -3.81664855058458 1.994773204347882 -16.966328127992075 -10.109142978229537 2.8162728289855346e-7 -5.263214633157072 -2.914829338727492e-8 -2.8963757038031748 -31.48528450010041 -17.25824925344112 8.560271230938328 46.49396000509381 -0.7087520094660583 -2.628498445918987 -18.993322680502445 13.463279166828604 3.5196343163792295e-7 -4.2762398327241975 0.0000012738138272210443
